<?xml version="1.0" standalone="no"?>
<!DOCTYPE svg PUBLIC "-//W3C//DTD SVG 20010904//EN"
 "http://www.w3.org/TR/2001/REC-SVG-20010904/DTD/svg10.dtd">
<svg version="1.0" xmlns="http://www.w3.org/2000/svg"
 width="900.000000pt" height="675.000000pt" viewBox="0 0 900.000000 675.000000"
 preserveAspectRatio="xMidYMid meet">
<metadata>
Created by potrace 1.10, written by Peter Selinger 2001-2011
</metadata>
<g transform="translate(0.000000,675.000000) scale(0.100000,-0.100000)"
fill="#ffffff" stroke="none">
<path d="M5790 6169 c-30 -11 -64 -22 -75 -24 -11 -3 -31 -13 -45 -23 -14 -10
-37 -22 -52 -25 -14 -4 -40 -18 -56 -32 -17 -14 -49 -32 -72 -40 -23 -8 -56
-25 -73 -37 -39 -28 -65 -42 -192 -106 -65 -33 -114 -66 -141 -94 -40 -42 -90
-140 -80 -157 3 -5 6 -93 6 -197 0 -104 0 -208 0 -230 0 -34 -5 -45 -25 -58
-14 -10 -31 -28 -37 -41 -7 -15 -28 -31 -57 -41 -25 -10 -58 -28 -72 -41 -15
-14 -44 -27 -67 -30 -28 -4 -42 -11 -45 -24 -3 -10 -18 -24 -34 -30 -15 -7
-55 -25 -87 -41 -83 -39 -116 -37 -222 18 -49 26 -107 56 -129 67 -22 11 -51
30 -65 42 -14 12 -36 25 -50 29 -41 9 -89 44 -109 77 -23 37 -36 201 -33 409
1 102 -2 141 -13 160 -8 14 -19 35 -24 46 -14 32 -76 80 -161 126 -102 56
-225 121 -285 152 -27 14 -70 37 -94 51 -24 14 -48 25 -53 25 -5 0 -24 11 -42
25 -18 14 -41 25 -50 25 -9 0 -31 7 -48 16 -39 20 -152 15 -189 -8 -13 -9 -35
-19 -49 -23 -14 -4 -38 -18 -53 -31 -16 -13 -36 -24 -46 -24 -10 0 -26 -9 -36
-20 -10 -11 -23 -20 -29 -20 -17 0 -87 -39 -119 -66 -18 -15 -41 -24 -63 -24
-24 0 -34 -5 -34 -15 0 -16 -55 -55 -78 -55 -29 0 -179 -140 -194 -181 -13
-34 -12 -2139 1 -2184 21 -75 116 -165 244 -232 16 -8 49 -30 74 -49 24 -19
49 -34 55 -34 6 0 26 -13 45 -30 18 -16 42 -30 52 -30 10 0 43 -18 74 -40 30
-22 60 -40 66 -40 6 0 24 -13 41 -30 17 -16 40 -30 52 -30 11 0 42 -8 70 -17
42 -16 48 -21 46 -43 -2 -16 -12 -28 -30 -34 -22 -8 -38 -4 -90 25 l-63 34
-435 0 c-427 0 -436 0 -482 -22 -30 -13 -48 -28 -48 -39 0 -13 -7 -16 -35 -11
-26 4 -35 2 -35 -9 0 -8 5 -14 10 -14 13 0 13 -37 -1 -45 -6 -4 -17 1 -24 11
-13 17 -16 17 -25 4 -5 -8 -7 -23 -4 -32 4 -13 0 -18 -15 -18 -25 0 -36 -17
-33 -51 2 -18 -3 -29 -15 -33 -10 -4 -19 -2 -21 3 -2 6 -10 11 -19 11 -11 0
-14 -9 -11 -36 5 -54 -18 -63 -70 -30 -24 15 -42 34 -42 44 0 10 -11 29 -25
42 -15 14 -25 35 -25 51 0 21 -16 46 -61 93 -51 53 -70 67 -110 76 -71 17
-950 8 -999 -10 -57 -21 -99 -55 -136 -108 -34 -48 -35 -52 -25 -93 6 -24 20
-62 30 -84 32 -69 62 -148 77 -205 8 -30 28 -83 44 -116 17 -34 30 -71 30 -82
0 -12 6 -19 17 -18 13 1 20 -13 31 -59 7 -33 22 -69 32 -80 10 -11 22 -38 25
-60 4 -22 16 -54 26 -72 11 -17 29 -60 40 -95 34 -105 92 -148 199 -148 l45 0
-37 -35 c-40 -36 -45 -53 -26 -84 10 -16 7 -26 -16 -60 -46 -66 -12 -85 48
-26 29 28 44 35 76 35 86 0 52 -59 -54 -96 l-61 -22 40 -17 c32 -14 46 -15 76
-6 54 16 67 14 97 -20 36 -41 123 -71 166 -57 17 6 49 14 71 18 22 5 49 11 60
15 16 5 24 -2 39 -30 14 -25 30 -38 58 -47 21 -6 38 -17 38 -26 0 -12 19 -14
117 -10 112 4 122 6 192 42 79 40 112 42 131 5 8 -13 17 -18 30 -14 12 4 27
-2 42 -17 l23 -23 610 4 c579 4 694 4 940 0 199 -4 527 -3 765 1 174 4 438 -5
447 -13 3 -4 11 -3 17 3 13 10 498 13 806 5 235 -7 204 -7 270 3 30 5 78 7
105 4 28 -2 105 -4 172 -5 66 -1 125 -5 129 -9 4 -4 13 -3 20 3 7 6 70 9 161
8 81 -1 208 -1 281 -1 109 1 132 -1 132 -13 0 -19 15 -19 44 0 19 13 57 15
230 11 114 -2 210 -6 212 -9 3 -3 20 -1 37 5 18 5 153 9 306 9 187 0 279 3
288 11 10 8 20 8 37 0 58 -26 254 -24 383 3 63 14 152 143 153 221 0 12 9 33
20 47 22 28 25 58 9 89 -22 40 -2 104 49 157 66 69 72 77 72 103 0 32 -27 106
-53 148 -13 19 -27 42 -32 51 -6 9 -18 28 -28 42 l-19 27 45 53 c72 84 142
286 152 438 7 119 0 143 -67 214 -102 110 40 100 -1403 102 -693 1 -1266 2
-1272 2 -7 1 -13 7 -13 15 0 24 184 152 242 169 15 4 32 16 38 26 5 11 24 23
42 26 18 4 40 18 50 31 10 12 28 26 40 30 12 3 57 31 101 60 43 30 82 54 86
54 14 0 69 97 75 132 4 21 14 45 23 54 14 14 15 21 4 51 -11 28 -11 40 -1 59
9 16 10 27 3 36 -12 14 -10 92 2 121 4 9 3 23 -3 30 -6 8 -9 261 -7 742 2 402
3 737 4 745 2 56 -7 253 -13 290 -14 83 -16 90 -53 131 -38 42 -136 112 -172
124 -12 3 -33 17 -49 29 -15 13 -38 27 -52 31 -14 4 -38 17 -54 28 -16 12 -77
45 -135 74 -57 29 -112 59 -120 66 -14 12 -168 68 -181 66 -3 0 -30 -9 -60
-20z m-2628 -76 c18 -10 35 -21 38 -25 3 -4 17 -12 30 -17 14 -6 32 -15 40
-20 8 -5 22 -12 30 -15 8 -3 23 -10 33 -16 35 -20 54 -30 132 -71 44 -23 121
-63 170 -90 50 -26 127 -67 173 -90 l83 -42 -2 -319 c-1 -292 0 -321 17 -339
9 -10 22 -19 29 -19 7 0 32 -11 56 -25 24 -13 68 -36 96 -50 29 -15 55 -30 58
-36 4 -5 15 -9 26 -9 10 0 19 -4 19 -8 0 -4 26 -20 58 -36 31 -15 84 -43 117
-62 33 -18 67 -37 75 -40 8 -4 23 -14 33 -23 15 -12 22 -13 35 -3 9 7 26 17
37 22 11 6 34 19 50 30 17 10 53 30 80 45 28 14 57 29 65 34 8 5 22 12 30 15
8 4 42 22 75 40 33 19 101 55 152 80 50 25 95 51 98 57 4 6 6 154 6 330 l-2
319 23 10 c13 5 32 15 43 22 30 17 45 25 105 54 30 15 57 29 60 33 3 3 39 23
80 44 77 39 91 46 125 65 11 6 56 29 100 52 44 22 87 45 95 50 8 5 22 11 30
14 8 4 29 15 45 26 50 33 53 33 100 1 25 -17 52 -31 60 -31 8 0 17 -5 20 -11
4 -5 17 -14 28 -19 12 -6 49 -25 82 -45 33 -19 83 -46 110 -60 28 -15 73 -40
100 -56 28 -16 64 -37 80 -45 17 -8 44 -23 60 -34 17 -11 37 -22 45 -26 8 -3
22 -10 30 -15 8 -5 25 -13 38 -19 12 -5 22 -15 22 -22 2 -1021 -1 -2190 -6
-2202 -4 -10 -16 -22 -28 -27 -11 -5 -34 -18 -51 -29 -16 -11 -37 -23 -45 -27
-8 -4 -31 -18 -50 -31 -19 -13 -44 -28 -55 -33 -11 -5 -33 -18 -50 -29 -16
-11 -39 -24 -50 -30 -11 -6 -32 -18 -46 -28 -23 -14 -101 -62 -161 -97 -93
-55 -164 -100 -166 -107 -5 -11 -32 -10 -32 0 0 5 -10 14 -22 21 -13 6 -36 20
-53 31 -16 11 -39 24 -50 30 -11 5 -27 14 -35 19 -8 5 -22 12 -30 15 -8 4 -28
15 -45 26 -16 11 -39 24 -50 29 -11 5 -37 21 -58 35 -21 14 -44 26 -52 26 -8
0 -17 5 -20 11 -4 5 -17 14 -28 20 -12 5 -31 15 -42 21 -70 45 -167 102 -210
124 -16 8 -43 23 -60 34 -16 11 -39 24 -50 30 -11 5 -47 26 -80 45 -33 19 -69
39 -80 45 -11 6 -42 24 -70 41 -27 16 -63 37 -80 45 -16 8 -43 23 -60 34 -16
11 -39 24 -50 29 -11 5 -38 21 -60 36 -43 30 -76 35 -101 14 -20 -16 -51 -34
-84 -49 -13 -6 -27 -14 -30 -18 -3 -4 -25 -17 -50 -30 -25 -13 -58 -32 -75
-42 -16 -11 -41 -25 -55 -30 -13 -6 -27 -14 -30 -18 -3 -4 -25 -17 -50 -30
-25 -13 -58 -32 -75 -42 -16 -11 -41 -25 -55 -30 -13 -6 -27 -14 -30 -18 -3
-4 -16 -13 -30 -19 -14 -7 -47 -26 -75 -43 -27 -16 -62 -35 -77 -41 -16 -6
-28 -14 -28 -19 0 -4 -8 -10 -17 -14 -10 -3 -45 -22 -78 -41 -33 -19 -69 -39
-80 -45 -11 -6 -33 -19 -50 -30 -16 -10 -52 -31 -80 -45 -27 -14 -63 -35 -80
-45 -16 -11 -37 -23 -45 -27 -38 -18 -135 -77 -138 -85 -5 -11 -32 -10 -32 0
0 5 -10 14 -22 21 -13 6 -36 20 -53 31 -16 11 -39 24 -50 30 -11 6 -33 19 -50
30 -16 11 -39 24 -50 30 -11 6 -33 19 -50 30 -16 11 -39 24 -50 30 -11 6 -33
19 -50 30 -16 11 -39 24 -50 30 -11 6 -33 19 -50 30 -16 11 -38 23 -47 26 -10
4 -18 10 -18 14 0 5 -10 12 -22 16 -12 3 -39 19 -61 35 -22 16 -46 29 -53 29
-7 0 -15 4 -19 9 -5 10 -9 2231 -3 2235 2 2 23 13 48 25 25 12 59 31 75 41 17
10 53 31 80 45 28 14 77 41 110 60 33 19 71 39 85 45 13 6 27 14 30 18 3 4 25
17 50 30 25 13 72 39 105 57 33 19 70 39 82 44 11 5 24 15 28 20 9 15 18 14
57 -6z m1392 -2407 c21 -7 46 -23 55 -35 11 -13 23 -19 36 -15 24 6 75 -29 75
-52 0 -9 10 -14 28 -14 34 0 77 -21 77 -38 0 -18 25 -32 61 -32 34 0 55 -16
47 -35 -5 -14 9 -20 70 -31 27 -4 37 -11 37 -25 0 -13 12 -21 42 -30 24 -6 80
-33 126 -60 45 -27 85 -49 88 -49 4 0 22 -13 41 -30 18 -16 44 -30 58 -30 23
0 55 -23 55 -40 0 -5 17 -12 38 -16 43 -8 61 -20 73 -50 6 -17 18 -24 46 -26
31 -2 39 -7 41 -26 2 -14 17 -29 43 -43 42 -21 43 -34 2 -50 -17 -6 -43 -4
-84 6 -53 14 -64 14 -105 0 -24 -8 -53 -15 -63 -15 -10 0 -38 -13 -62 -30 -24
-16 -56 -30 -72 -30 -24 0 -26 -2 -15 -19 24 -38 -37 -74 -68 -40 -21 23 -60
25 -72 3 -15 -26 -35 -6 -28 27 5 27 0 32 -51 67 l-56 37 -331 0 c-324 0 -332
0 -377 -23 -54 -26 -149 -133 -149 -166 0 -12 11 -37 25 -56 14 -19 30 -51 35
-71 6 -20 24 -53 40 -74 17 -21 30 -41 30 -45 0 -4 8 -7 17 -6 21 1 35 -60 27
-116 -6 -36 -13 -45 -27 -32 -3 4 -84 6 -179 5 -139 -2 -177 1 -193 13 -16 11
-17 17 -8 27 7 7 9 24 6 40 -3 18 4 51 20 91 32 81 57 168 57 199 0 14 5 30
10 35 21 21 -41 128 -92 159 -30 18 -54 20 -243 22 -115 1 -226 5 -246 8 -25
5 -46 2 -68 -10 -38 -19 -81 -13 -123 18 -34 25 -26 41 18 32 41 -7 72 7 76
37 2 17 13 25 48 33 35 8 46 16 50 35 5 20 13 26 44 28 27 2 48 13 68 33 16
16 35 29 43 29 7 0 37 18 66 40 30 22 56 40 60 40 4 0 38 18 75 40 38 22 86
45 107 51 27 7 37 14 33 25 -3 9 1 14 14 14 10 0 22 5 25 10 3 6 19 10 35 10
22 0 32 7 42 27 10 21 23 29 52 34 23 4 46 16 59 32 12 13 37 28 55 31 19 3
46 19 62 36 15 16 37 30 48 30 11 0 35 12 53 27 26 23 63 35 124 42 6 0 28 -5
49 -13z m-606 -819 c8 -9 6 -21 -8 -42 -11 -17 -20 -41 -20 -55 -1 -14 -7 -36
-15 -50 -8 -14 -15 -38 -15 -55 0 -16 -7 -41 -15 -55 -8 -14 -15 -41 -15 -60
0 -19 -7 -46 -15 -60 -8 -14 -15 -38 -15 -55 0 -16 -7 -39 -15 -49 -8 -11 -15
-32 -15 -47 0 -15 -4 -31 -10 -34 -5 -3 -10 -13 -10 -21 0 -12 45 -14 295 -14
281 0 295 1 305 19 5 11 10 35 10 53 0 18 7 46 15 62 8 15 15 34 15 42 0 14
-58 115 -71 124 -4 3 -13 17 -18 30 -11 26 -32 61 -41 70 -3 3 -11 16 -18 30
-6 14 -17 32 -23 41 -14 18 -4 69 12 69 6 0 28 13 48 30 l38 29 359 1 359 2
-3 -43 c-1 -23 -8 -51 -14 -63 -6 -11 -15 -37 -19 -56 -4 -19 -15 -54 -23 -78
-24 -63 -3 -82 45 -42 43 35 86 68 119 90 12 8 28 20 34 25 6 6 29 22 51 35
22 13 42 27 45 30 3 4 21 15 40 26 19 10 51 31 71 47 l37 27 1530 0 c1498 0
1530 0 1574 -20 24 -10 51 -27 60 -37 47 -54 62 -142 33 -193 -8 -14 -15 -38
-15 -55 0 -16 -7 -41 -15 -55 -8 -14 -15 -41 -15 -60 0 -19 -7 -44 -15 -54 -8
-11 -15 -28 -15 -38 0 -22 -118 -143 -149 -153 -21 -6 -31 -49 -13 -57 4 -1
51 -60 104 -130 l96 -127 -55 -41 c-73 -54 -110 -60 -400 -60 -259 0 -240 -5
-295 75 -15 22 -41 56 -58 75 -16 19 -42 54 -57 78 -25 38 -31 43 -61 40 -31
-3 -35 -7 -53 -58 -10 -30 -19 -64 -19 -75 0 -22 -19 -42 -97 -103 l-41 -32
-214 2 c-238 3 -237 3 -204 73 9 18 16 41 16 50 0 10 7 38 14 64 8 25 22 73
31 106 9 33 23 80 31 105 8 25 14 62 14 82 0 20 5 40 10 43 6 3 10 18 10 33 0
15 7 40 15 56 44 83 -3 101 -80 31 l-50 -46 -85 3 c-84 2 -84 2 -101 -27 -10
-17 -19 -43 -21 -60 l-3 -30 125 -3 c155 -3 155 -3 135 -41 -8 -17 -15 -38
-15 -48 0 -10 -7 -31 -15 -47 -8 -15 -15 -37 -15 -47 0 -10 -6 -38 -14 -61 -8
-24 -17 -61 -21 -83 -5 -32 -19 -52 -68 -98 l-61 -57 -912 1 -912 0 -68 76
c-38 42 -76 84 -85 93 -9 10 -28 35 -42 56 l-26 37 -21 -47 c-11 -26 -20 -62
-20 -79 0 -28 -9 -39 -69 -85 l-69 -52 -958 2 -959 3 -29 60 c-16 33 -35 72
-42 87 -8 14 -14 33 -14 42 0 18 7 18 -169 17 l-133 0 -67 -72 c-36 -40 -80
-88 -98 -106 l-31 -33 -266 0 c-146 0 -266 3 -266 6 0 13 23 46 53 77 18 18
91 96 162 172 127 136 183 196 372 393 83 87 112 132 83 132 -5 0 -44 -37 -87
-81 -43 -45 -100 -105 -128 -133 -51 -53 -284 -300 -392 -416 -34 -36 -79 -84
-101 -107 l-40 -43 -165 0 c-177 0 -179 1 -193 55 -4 17 -14 41 -22 54 l-16
23 -18 -24 c-9 -14 -35 -44 -57 -66 l-39 -42 -171 0 -171 0 -25 54 c-14 30
-25 59 -25 65 0 5 -6 22 -14 38 -23 45 -46 100 -46 111 0 6 -6 23 -14 39 -23
45 -46 100 -46 111 0 6 -6 23 -14 39 -26 51 -46 101 -46 116 0 8 -7 20 -15 27
-8 7 -15 21 -15 30 0 10 -8 33 -17 52 -9 18 -22 45 -30 60 -7 14 -13 33 -13
42 0 9 -4 24 -10 34 -20 37 -50 112 -50 126 0 9 -4 16 -10 16 -29 0 -4 34 66
88 l42 32 512 0 c477 0 514 -1 526 -17 7 -10 14 -29 14 -43 0 -14 7 -34 15
-44 8 -11 15 -28 15 -37 0 -10 7 -31 15 -48 8 -17 22 -45 30 -62 8 -17 15 -37
15 -46 0 -8 6 -27 14 -41 8 -15 17 -39 21 -54 7 -35 37 -37 58 -5 9 13 30 40
49 59 18 20 48 53 66 74 69 79 194 204 206 204 6 0 26 14 44 30 l33 30 459 0
459 0 16 -30 c8 -16 15 -36 15 -44 0 -8 7 -28 15 -45 8 -17 22 -45 30 -62 8
-17 15 -37 15 -44 0 -7 7 -28 16 -47 38 -77 44 -90 44 -108 0 -9 7 -23 15 -30
8 -7 15 -22 15 -34 0 -11 7 -30 15 -40 8 -11 15 -26 15 -35 0 -25 34 -91 44
-88 6 2 12 23 14 48 2 24 7 48 12 54 4 5 11 29 15 52 6 39 2 49 -43 125 -85
141 -91 152 -101 175 -5 11 -15 24 -20 28 -20 12 -11 44 16 62 16 10 38 27 51
38 22 19 42 20 380 25 196 3 360 6 363 8 4 1 11 -4 17 -11z m1266 -66 c3 -4
-3 -16 -13 -25 -22 -20 -40 -4 -21 19 14 17 26 19 34 6z m-2662 -873 c4 -29
43 -36 69 -12 18 16 19 15 29 -10 16 -44 12 -67 -21 -101 l-32 -32 -97 5 c-66
3 -99 1 -104 -7 -4 -6 -16 -11 -27 -11 -11 0 -33 -9 -48 -21 -29 -21 -72 -23
-78 -2 -6 18 38 54 59 47 13 -4 21 2 27 18 5 13 19 32 31 43 12 11 26 30 31
42 6 16 16 21 37 21 36 -1 55 10 48 28 -4 11 4 14 34 14 32 0 39 -4 42 -22z
m5225 -49 c23 -20 15 -39 -16 -39 -43 0 -47 -16 -11 -48 36 -33 31 -42 -23
-42 -39 0 -39 1 -33 30 4 22 1 32 -9 36 -21 8 -19 61 3 74 19 12 68 6 89 -11z
m-2869 -107 c3 -9 -2 -13 -14 -10 -9 1 -19 9 -22 16 -3 9 2 13 14 10 9 -1 19
-9 22 -16z m-3688 -37 c0 -16 -17 -19 -44 -9 -26 10 -18 24 14 24 20 0 30 -5
30 -15z m-185 -15 c6 -10 -25 -30 -47 -30 -7 0 -23 8 -35 18 -22 17 -22 17 27
19 27 2 52 -1 55 -7z m255 0 c0 -5 -9 -10 -20 -10 -11 0 -20 5 -20 10 0 6 9
10 20 10 11 0 20 -4 20 -10z m479 1 c22 -14 2 -32 -32 -30 -18 1 -42 -1 -54
-5 -26 -8 -32 11 -11 32 14 14 77 16 97 3z m380 -100 c-24 -22 -47 -40 -51
-41 -12 0 -10 -28 2 -32 5 -1 50 -2 99 0 l89 3 42 60 c24 32 48 60 54 61 6 1
1380 2 3053 2 2240 1 3044 -2 3047 -10 2 -6 -4 -24 -15 -40 -10 -16 -19 -40
-19 -54 0 -14 -7 -34 -15 -44 -8 -11 -15 -30 -15 -42 0 -12 -7 -35 -15 -50 -8
-16 -15 -39 -15 -51 0 -13 -6 -24 -12 -24 -7 -1 -1453 -3 -3213 -3 -1760 -1
-3217 -6 -3239 -10 -37 -9 -38 -8 -31 15 4 13 17 31 29 41 41 32 76 67 76 78
0 7 -34 10 -99 9 l-99 -1 -43 -51 c-24 -28 -50 -56 -57 -64 -9 -9 -42 -13
-107 -13 -52 0 -117 -5 -145 -11 -102 -22 -98 6 15 112 l71 66 134 6 135 6 43
48 c24 26 50 57 58 68 12 17 29 20 137 25 155 7 170 -1 106 -59z m-1210 45
c16 -19 -40 -66 -79 -66 -40 0 -45 14 -19 50 17 22 31 30 55 30 17 0 37 -6 43
-14z m251 -1 c10 -12 6 -22 -28 -55 -36 -36 -45 -40 -90 -40 -28 0 -54 5 -57
11 -12 18 66 82 110 90 22 3 43 7 46 8 4 0 12 -6 19 -14z m416 3 c4 -6 -1 -17
-11 -24 -10 -7 -43 -37 -73 -66 l-56 -53 -85 -3 -86 -4 -45 -48 c-42 -45 -49
-49 -105 -53 -33 -3 -70 -8 -82 -12 -20 -6 -23 -4 -23 18 0 18 16 41 53 76
l52 51 72 0 71 0 48 56 c27 31 58 60 69 64 32 13 193 12 201 -2z"/>
<path d="M3176 5959 c-3 -8 -7 -129 -10 -269 -2 -140 -7 -267 -11 -282 -6 -24
-4 -28 12 -28 11 0 31 8 44 18 40 28 63 42 92 53 15 6 27 15 27 20 0 5 8 9 19
9 10 0 24 7 31 15 7 8 20 15 30 15 10 0 23 6 29 14 7 8 23 17 36 20 14 4 25
11 25 16 0 6 9 10 19 10 11 0 22 4 25 9 6 9 53 33 134 67 23 10 42 23 42 29 0
6 -48 34 -107 63 -60 29 -115 57 -123 62 -8 5 -22 11 -30 15 -8 3 -42 21 -75
40 -33 19 -82 46 -110 60 -27 14 -60 33 -72 41 -19 13 -24 14 -27 3z m189
-199 c10 -11 25 -20 34 -20 23 0 61 -28 61 -45 0 -8 -13 -21 -30 -30 -21 -11
-29 -22 -27 -37 2 -18 -5 -23 -36 -30 -33 -7 -43 -4 -73 18 -39 30 -43 56 -13
78 17 11 20 21 15 42 -12 44 36 61 69 24z"/>
<path d="M5769 5952 c-13 -10 -31 -22 -39 -25 -8 -4 -28 -16 -45 -27 -16 -11
-37 -22 -45 -26 -8 -3 -22 -9 -30 -14 -8 -5 -40 -21 -70 -36 -30 -15 -57 -29
-60 -33 -5 -6 -58 -32 -90 -45 -8 -3 -22 -10 -30 -15 -8 -5 -32 -17 -52 -25
-20 -9 -40 -21 -43 -25 -3 -5 59 -42 137 -81 79 -40 170 -87 203 -105 33 -19
79 -43 103 -55 23 -12 49 -29 57 -37 8 -8 27 -15 42 -16 31 -2 31 -5 13 98 -5
33 -10 153 -10 267 0 114 -4 209 -9 212 -5 3 -19 -2 -32 -12z m-62 -183 c7 -7
8 -20 3 -34 -5 -12 -4 -39 3 -62 14 -53 1 -69 -56 -75 -43 -5 -77 12 -77 37 0
7 -11 20 -25 29 -42 28 -32 49 43 83 74 35 92 39 109 22z"/>
<path d="M3038 5953 c-5 -12 -66 -53 -77 -53 -5 0 -16 -6 -23 -12 -7 -7 -33
-23 -58 -36 -25 -13 -72 -39 -105 -57 -33 -19 -67 -37 -75 -40 -8 -4 -22 -11
-30 -16 -8 -4 -36 -18 -62 -30 -27 -12 -48 -27 -48 -34 0 -7 21 -22 48 -34 54
-25 119 -62 180 -102 24 -16 45 -29 48 -29 2 0 23 -12 47 -27 64 -42 80 -51
105 -62 12 -6 22 -15 22 -20 0 -11 38 -22 44 -12 3 4 7 95 10 202 3 107 8 233
12 282 7 83 6 87 -14 87 -11 0 -22 -3 -24 -7z m-94 -224 c20 -24 24 -35 16
-49 -5 -10 -7 -32 -4 -48 5 -27 3 -31 -24 -36 -23 -6 -39 0 -75 23 -25 17 -48
38 -51 47 -7 19 10 44 31 44 8 0 24 11 35 25 26 33 41 32 72 -6z"/>
<path d="M5904 5893 c16 -162 25 -383 20 -439 -8 -76 3 -86 57 -47 50 35 88
60 114 73 11 6 34 19 50 30 17 11 39 24 50 30 11 6 34 19 50 30 17 11 39 24
50 30 11 5 27 14 35 19 8 5 32 17 53 27 20 10 37 23 37 29 0 6 -17 19 -37 29
-21 10 -45 22 -53 27 -8 5 -22 12 -30 15 -31 12 -36 15 -65 34 -16 10 -52 31
-80 45 -27 14 -63 35 -80 45 -16 11 -39 24 -50 29 -11 5 -37 21 -58 35 -62 43
-71 37 -63 -41z m192 -148 c17 -8 41 -26 54 -40 23 -25 23 -27 8 -53 -9 -15
-30 -35 -47 -46 -30 -17 -33 -17 -57 -1 -21 14 -25 22 -20 45 3 18 0 32 -9 40
-12 10 -11 16 7 41 25 34 26 34 64 14z"/>
<path d="M2510 5580 c0 -5 0 -450 0 -987 0 -675 3 -979 10 -981 6 -2 23 4 38
14 37 26 62 40 97 58 17 8 53 29 80 45 28 17 57 33 65 37 8 3 22 9 30 14 8 5
40 21 70 36 30 15 57 29 60 33 3 3 28 18 55 32 46 23 50 28 49 60 -1 19 -5
324 -9 679 -8 639 -8 645 -29 660 -24 17 -89 55 -126 73 -14 6 -31 17 -38 24
-7 7 -18 13 -23 13 -5 0 -28 14 -51 30 -22 17 -47 30 -55 30 -7 0 -13 4 -13 9
0 5 -9 13 -21 16 -11 4 -56 31 -99 61 -84 57 -90 60 -90 44z m234 -251 c44
-22 88 -47 97 -55 8 -8 23 -14 31 -14 9 0 34 -25 57 -57 l40 -56 -2 -226 c0
-124 1 -372 2 -551 l3 -325 -39 -65 c-29 -46 -47 -66 -64 -68 -13 -2 -33 -12
-44 -21 -11 -10 -35 -23 -53 -29 -18 -6 -45 -20 -59 -32 -33 -25 -69 -26 -83
0 -15 28 -13 1509 2 1527 15 19 22 17 112 -28z"/>
<path d="M3695 5552 c-33 -22 -89 -55 -125 -74 -36 -19 -92 -50 -125 -68 -108
-59 -210 -110 -220 -110 -6 0 -25 -12 -43 -27 l-33 -28 10 -60 c9 -54 19
-1523 13 -1857 -2 -90 1 -128 9 -128 6 0 28 13 48 29 37 29 109 73 146 90 12
5 62 34 111 64 50 30 101 58 112 61 12 4 22 12 22 17 0 5 5 9 11 9 6 0 44 20
84 44 39 24 82 47 93 50 12 4 22 11 22 16 0 5 10 12 22 16 17 5 163 88 218
124 8 6 24 14 36 19 17 8 80 44 174 101 8 5 44 24 78 42 35 18 66 37 69 42 3
5 7 133 8 285 1 152 6 297 10 324 7 44 6 47 -15 47 -12 0 -39 -13 -59 -28 -41
-33 -338 -212 -350 -212 -4 0 -27 -13 -49 -30 -23 -16 -46 -30 -51 -30 -5 0
-16 -6 -23 -13 -7 -6 -39 -30 -70 -51 -62 -42 -72 -62 -34 -72 27 -6 102 12
112 28 4 6 34 23 68 39 70 33 83 41 145 87 24 17 48 32 53 32 6 0 21 9 35 20
14 11 33 20 43 20 9 0 27 11 40 25 13 14 30 25 37 25 20 0 27 -28 13 -45 -10
-12 -10 -21 -1 -44 19 -45 9 -322 -13 -355 -9 -14 -21 -26 -28 -26 -6 0 -31
-15 -57 -33 -25 -18 -58 -38 -73 -44 -16 -7 -28 -17 -28 -22 0 -6 -16 -13 -35
-17 -19 -3 -51 -19 -71 -35 -20 -16 -42 -29 -49 -29 -7 0 -23 -9 -36 -19 -24
-18 -70 -46 -179 -106 -68 -37 -111 -63 -159 -94 -20 -13 -49 -28 -66 -34 -16
-6 -50 -24 -75 -41 -53 -36 -110 -66 -125 -66 -6 0 -22 -11 -35 -25 -29 -31
-40 -32 -40 -2 -3 82 -15 1367 -15 1562 0 216 2 244 18 269 12 18 25 26 40 25
13 -2 34 8 51 24 16 15 54 39 85 53 31 15 67 34 81 44 14 10 39 21 56 24 17 4
41 16 52 26 18 18 38 25 44 18 1 -2 4 -272 7 -601 l6 -598 25 -19 c14 -11 28
-20 32 -20 15 0 20 136 23 720 2 338 5 628 7 645 5 43 -17 42 -87 -3z"/>
<path d="M5208 5583 c-2 -5 -1 -318 2 -698 3 -379 2 -694 -1 -698 -3 -4 -12
-1 -19 8 -7 8 -17 15 -22 15 -5 0 -28 15 -51 33 -42 32 -58 42 -132 81 -22 12
-67 39 -99 60 -32 21 -68 41 -80 46 -12 4 -38 20 -59 34 -21 14 -51 33 -67 41
-15 8 -43 28 -61 45 -19 16 -43 30 -54 30 -20 0 -20 -4 -16 -327 4 -370 -6
-330 96 -383 33 -17 83 -44 110 -60 28 -16 57 -32 65 -36 8 -4 44 -25 79 -47
35 -21 74 -43 85 -48 12 -5 35 -18 51 -28 31 -20 72 -44 135 -77 19 -11 37
-22 40 -26 3 -4 17 -12 30 -17 14 -6 32 -15 40 -21 61 -39 191 -113 310 -176
19 -11 37 -21 40 -25 3 -3 23 -16 45 -29 22 -13 56 -36 76 -52 20 -15 42 -28
47 -28 7 0 11 250 11 793 1 759 5 1056 16 1197 5 65 5 65 -28 88 -18 12 -41
22 -50 22 -8 0 -18 4 -22 9 -3 5 -31 23 -63 39 -77 39 -237 124 -292 156 -25
14 -52 29 -60 33 -8 3 -29 17 -46 30 -32 24 -50 29 -56 16z m192 -197 c14 -7
59 -31 100 -53 42 -22 86 -44 99 -48 13 -4 31 -14 41 -23 10 -10 34 -32 54
-51 l36 -34 1 -166 c1 -166 0 -695 -2 -1256 0 -282 -2 -302 -21 -332 -23 -39
-43 -41 -89 -10 -80 53 -157 96 -181 102 -15 4 -34 15 -44 26 -9 10 -40 30
-68 44 -50 25 -87 45 -203 114 -32 19 -81 46 -108 60 -28 14 -64 36 -79 49
-16 12 -33 22 -39 22 -6 0 -49 24 -97 54 -47 29 -96 57 -108 60 -46 15 -54 44
-57 212 -2 98 1 166 8 181 8 17 7 27 -1 35 -16 16 -15 37 3 44 9 4 30 -7 50
-25 21 -18 47 -31 63 -31 16 0 32 -8 40 -20 7 -11 20 -20 30 -20 10 0 29 -11
42 -25 13 -14 29 -25 36 -25 7 0 25 -11 41 -24 16 -14 43 -28 59 -32 16 -3 45
-19 66 -35 20 -16 55 -31 78 -35 35 -6 45 -3 63 15 12 12 30 28 40 35 11 6 23
32 27 57 5 24 9 272 9 551 1 505 4 586 25 601 13 8 50 1 86 -17z"/>
<path d="M6399 5548 c-51 -38 -76 -54 -104 -68 -11 -6 -33 -19 -50 -30 -16
-11 -39 -24 -50 -30 -11 -6 -33 -19 -50 -30 -16 -11 -39 -24 -50 -30 -11 -6
-33 -19 -50 -29 -16 -11 -49 -29 -72 -41 l-43 -22 0 -562 c0 -310 -3 -617 -6
-683 l-7 -121 56 -27 c31 -14 59 -30 62 -36 4 -5 15 -9 26 -9 10 0 19 -4 19
-9 0 -5 12 -14 28 -20 15 -6 35 -15 45 -21 35 -20 53 -30 102 -55 55 -28 66
-35 142 -83 29 -19 57 -32 63 -30 7 2 11 323 13 986 2 1103 9 1011 -74 950z
m-38 -225 c3 -18 6 -359 5 -758 -1 -797 3 -745 -62 -745 -16 0 -34 4 -40 9 -9
10 -79 49 -147 83 -33 17 -73 65 -89 109 -6 16 -8 115 -9 469 -1 132 0 586 1
652 0 34 64 102 135 144 109 63 131 73 165 71 30 -2 35 -6 41 -34z"/>
<path d="M3878 4935 c-3 -3 -1 -31 4 -63 11 -63 5 -447 -7 -474 -11 -26 21
-23 59 5 17 13 38 27 46 30 8 4 29 16 45 27 17 11 39 24 50 30 11 6 34 19 50
30 17 11 39 24 50 30 11 6 47 26 80 45 33 19 72 40 88 46 37 15 55 47 30 55
-23 7 -83 33 -103 45 -8 5 -22 12 -30 15 -8 3 -22 10 -30 15 -8 5 -37 20 -65
35 -27 14 -77 41 -110 60 -33 18 -70 38 -82 43 -11 5 -24 15 -28 20 -6 11 -38
15 -47 6z m201 -206 c40 -17 51 -26 51 -45 0 -15 -9 -27 -27 -36 -15 -7 -30
-24 -33 -38 -5 -19 -12 -24 -31 -22 -13 1 -33 11 -43 22 -17 16 -18 23 -8 45
7 14 12 38 12 54 0 48 7 49 79 20z"/>
<path d="M5052 4927 c-6 -7 -30 -23 -54 -36 -24 -12 -70 -37 -103 -55 -115
-64 -260 -136 -272 -136 -19 0 -26 -19 -13 -35 7 -8 35 -26 64 -40 64 -32 128
-69 184 -106 24 -16 47 -29 51 -29 5 0 50 -28 100 -61 51 -34 96 -58 101 -53
4 5 3 41 -2 79 -9 61 -6 405 4 460 2 15 -3 21 -23 23 -14 2 -31 -3 -37 -11z
m-56 -222 c1 -16 5 -44 9 -61 5 -24 3 -33 -10 -38 -20 -7 -65 3 -65 15 0 5 -8
9 -18 9 -25 0 -66 45 -59 64 9 22 66 45 107 43 31 -2 35 -5 36 -32z"/>
<path d="M3031 3779 c-19 -10 -37 -22 -40 -26 -3 -4 -26 -18 -51 -31 -25 -13
-72 -39 -105 -57 -33 -19 -67 -37 -75 -40 -8 -4 -22 -10 -30 -15 -8 -5 -50
-26 -93 -47 -42 -20 -76 -41 -74 -47 3 -9 35 -29 142 -86 22 -12 59 -35 83
-51 24 -16 45 -29 48 -29 2 0 23 -12 47 -27 62 -40 80 -51 102 -61 11 -6 33
-22 48 -36 15 -14 32 -26 38 -26 10 0 10 589 0 594 -4 1 -21 -6 -40 -15z m-45
-239 c1 -25 4 -59 8 -76 9 -37 -14 -65 -38 -45 -7 6 -28 10 -46 9 -21 -2 -35
3 -41 15 -6 9 -24 24 -40 33 -39 20 -37 57 2 62 15 2 30 12 36 25 9 19 18 22
64 22 l54 0 1 -45z"/>
<path d="M5910 3798 c0 -2 -2 -137 -3 -300 -3 -242 -1 -298 10 -298 7 0 13 5
13 10 0 6 8 13 18 17 9 3 33 18 52 33 19 15 42 30 50 33 8 4 29 16 45 27 17
11 39 24 50 30 11 6 34 19 50 30 17 11 39 24 50 30 11 6 34 19 50 30 17 10 51
29 78 41 26 12 47 27 47 33 0 12 -54 46 -75 46 -7 0 -18 7 -25 15 -7 8 -20 15
-30 15 -10 0 -23 7 -30 15 -7 8 -21 15 -31 15 -11 0 -19 4 -19 9 0 5 -12 14
-27 20 -16 7 -55 27 -88 46 -33 19 -67 38 -75 42 -8 4 -34 20 -56 35 -38 25
-54 33 -54 26z m225 -245 c19 -20 35 -42 35 -48 0 -18 -79 -87 -91 -79 -6 3
-26 6 -46 6 l-35 0 7 37 c4 20 7 53 7 73 -1 33 2 37 26 41 55 8 62 6 97 -30z"/>
<path d="M396 2741 c-3 -5 5 -31 18 -58 30 -59 59 -127 76 -173 19 -50 49
-122 60 -142 6 -10 10 -23 10 -28 0 -10 15 -46 56 -137 8 -17 14 -36 14 -41 0
-6 6 -23 14 -39 16 -32 26 -56 56 -133 12 -30 26 -64 30 -75 5 -11 12 -30 15
-42 6 -22 10 -23 144 -23 156 0 138 -8 237 102 63 70 86 77 95 28 3 -19 14
-48 23 -65 9 -16 16 -35 16 -41 0 -20 27 -24 160 -24 l128 0 67 73 c37 39 147
155 244 257 98 102 238 251 312 332 74 80 139 146 144 147 6 0 27 -24 48 -55
l38 -56 -58 -62 c-32 -33 -61 -62 -65 -64 -5 -2 -8 -10 -8 -17 0 -10 31 -12
153 -8 165 5 182 0 171 -44 -5 -18 -10 -20 -28 -13 -12 4 -95 10 -185 12
l-162 3 -137 -144 c-75 -79 -181 -189 -234 -244 -53 -56 -94 -105 -92 -109 3
-4 92 -8 198 -8 l193 0 101 105 100 105 181 0 181 0 10 -27 c6 -16 15 -37 20
-48 5 -11 20 -46 34 -77 l25 -57 723 2 723 2 5 35 c4 20 10 41 14 48 4 7 11
33 16 60 4 26 16 66 24 90 9 24 14 48 10 53 -4 7 -126 10 -347 8 -364 -3 -365
-2 -333 46 9 13 16 32 16 42 0 10 6 38 14 63 8 25 21 71 30 103 9 31 22 82 31
112 29 109 47 170 56 193 5 13 7 28 4 33 -7 10 -588 13 -598 2 -4 -3 4 -20 16
-37 13 -17 44 -64 68 -104 24 -40 52 -85 61 -100 18 -30 23 -68 9 -76 -4 -3
-11 -26 -15 -52 -3 -26 -10 -52 -15 -58 -6 -7 -14 -30 -20 -51 -5 -22 -14 -53
-19 -70 -28 -86 -42 -134 -42 -149 0 -34 -34 -136 -45 -136 -6 0 -19 28 -29
63 -10 34 -24 76 -31 92 -7 17 -21 50 -30 75 -9 25 -23 59 -30 75 -7 17 -20
50 -30 75 -22 57 -43 107 -61 143 -8 16 -14 35 -14 42 0 13 -6 28 -44 103 -9
19 -16 41 -16 51 0 9 -6 25 -14 36 -7 11 -16 32 -20 47 -4 18 -15 30 -30 34
-13 3 -209 4 -436 2 l-412 -3 -69 -75 c-39 -41 -136 -144 -217 -228 -81 -84
-150 -160 -155 -168 -4 -7 -16 -14 -26 -14 -20 0 -31 19 -31 54 0 12 -7 31
-15 42 -8 10 -15 27 -15 37 0 11 -6 31 -14 45 -24 48 -46 102 -46 117 0 7 -6
26 -14 42 -26 50 -46 101 -46 115 0 35 -21 38 -232 38 -114 0 -208 -4 -208 -8
0 -4 18 -45 40 -90 22 -44 40 -89 40 -98 0 -9 6 -28 14 -42 7 -15 22 -45 31
-67 10 -22 24 -53 31 -68 25 -51 12 -86 -44 -116 -22 -12 -32 -6 -32 22 0 10
-7 35 -16 55 -9 21 -22 52 -30 70 -8 18 -14 39 -14 47 0 7 -7 27 -15 44 -8 17
-22 45 -30 62 -8 17 -15 38 -15 48 0 9 -7 26 -15 37 -8 10 -15 28 -15 39 0 11
-7 31 -16 43 -15 21 -20 22 -214 22 -109 0 -201 -4 -204 -9z m386 -92 c10 -18
18 -39 18 -46 0 -8 4 -21 9 -31 27 -55 51 -114 67 -162 10 -30 24 -61 31 -68
7 -7 13 -28 13 -46 0 -22 8 -40 25 -56 14 -13 25 -29 25 -36 0 -6 6 -17 14
-23 10 -9 17 -6 29 11 8 13 37 46 65 74 l51 50 -16 50 c-20 62 -31 89 -53 139
-40 89 -50 154 -17 113 14 -19 57 -7 57 16 0 15 -45 30 -61 21 -14 -9 -49 4
-49 18 0 9 39 12 141 11 126 0 143 -2 155 -19 8 -10 14 -26 14 -36 0 -9 7 -22
15 -29 8 -7 18 -30 21 -52 4 -21 11 -41 15 -44 5 -3 9 -15 9 -26 0 -12 8 -30
17 -41 11 -11 20 -42 23 -76 4 -48 8 -56 26 -59 17 -2 23 -12 28 -43 3 -21 11
-39 16 -39 6 0 10 -6 10 -13 0 -7 5 -18 11 -24 8 -8 34 13 96 74 47 46 103
105 125 131 55 64 155 175 221 244 l53 57 140 -4 c76 -2 141 -4 144 -4 3 -1
-8 -12 -25 -25 -26 -21 -31 -22 -40 -9 -9 11 -20 13 -44 8 -27 -6 -37 -16 -53
-52 -11 -24 -18 -47 -15 -49 3 -3 17 6 32 20 16 15 32 26 38 26 5 0 16 8 23
18 7 9 14 12 14 5 0 -6 -28 -43 -62 -81 -35 -38 -90 -99 -123 -135 -33 -37
-65 -67 -72 -67 -7 0 -13 -5 -13 -11 0 -11 -36 -51 -232 -252 -71 -72 -128
-135 -128 -140 0 -5 -10 -17 -23 -28 -18 -15 -39 -18 -128 -19 l-106 0 -16 33
c-9 17 -30 62 -47 99 -17 37 -35 70 -40 73 -4 2 -18 -11 -31 -30 -13 -19 -27
-35 -31 -35 -4 0 -38 -31 -74 -70 l-67 -70 -109 0 -108 0 -11 28 c-6 15 -17
39 -25 54 -8 14 -14 33 -14 41 0 9 -8 30 -17 49 -9 18 -22 45 -30 60 -7 14
-13 33 -13 41 0 9 -6 28 -14 44 -8 15 -21 44 -29 63 -8 19 -22 52 -31 73 -9
21 -16 42 -16 48 0 6 -7 17 -15 25 -8 9 -15 26 -15 39 0 14 -13 50 -30 80 -17
31 -30 71 -30 90 0 19 -4 35 -10 35 -17 0 -11 18 8 22 9 2 73 3 141 3 l125 -2
18 -34z m2032 19 c14 -14 38 -116 33 -141 -1 -6 7 -11 18 -12 24 0 33 -47 15
-80 -15 -28 -9 -97 9 -103 11 -4 13 7 9 52 -3 31 -1 56 4 56 10 0 43 -72 53
-118 3 -18 11 -32 16 -32 5 0 9 -6 9 -12 1 -7 9 -31 20 -53 11 -22 19 -50 20
-62 0 -13 5 -23 10 -23 6 0 10 -6 10 -12 1 -7 9 -31 20 -53 11 -22 19 -46 20
-53 0 -7 7 -24 16 -37 9 -14 14 -34 11 -44 -3 -13 1 -21 15 -24 11 -3 18 -11
16 -18 -3 -10 -38 -12 -144 -11 -76 2 -147 5 -156 8 -10 3 -21 17 -24 32 -4
15 -13 36 -20 47 -8 11 -14 30 -14 42 0 13 -4 23 -9 23 -5 0 -14 14 -20 30
l-10 30 -204 0 -205 0 -71 -70 c-40 -38 -76 -70 -81 -70 -6 0 -10 -8 -10 -17
-1 -40 -39 -51 -188 -54 -78 -2 -144 0 -148 3 -9 10 33 29 50 22 9 -4 22 -1
30 5 10 9 20 9 39 0 17 -8 30 -8 43 -1 17 10 16 11 -8 17 -15 4 -32 13 -39 21
-16 20 -26 17 -32 -7 -3 -12 -11 -19 -18 -17 -22 7 -22 29 0 35 12 3 21 9 21
12 0 4 69 78 153 165 l152 157 215 3 c118 2 217 4 219 5 2 1 -4 12 -12 24 -8
13 -17 37 -19 53 -3 27 -7 30 -53 36 -27 3 -87 7 -132 7 -46 1 -83 5 -83 9 0
5 15 25 33 44 64 71 69 81 41 92 -13 5 -15 15 -11 41 5 31 3 34 -24 40 -16 4
-29 12 -29 19 0 20 423 14 444 -6z m891 10 c3 -2 0 -20 -6 -39 -6 -19 -17 -61
-24 -94 -30 -131 -38 -160 -51 -170 -7 -5 -15 -32 -17 -60 -7 -62 -26 -154
-38 -177 -22 -42 -15 -45 130 -52 76 -4 208 -7 292 -6 269 2 252 4 246 -27
-17 -94 -30 -149 -36 -155 -3 -4 -222 -8 -486 -8 -389 -1 -480 1 -480 12 0 8
14 13 39 13 25 0 41 5 44 14 3 10 -2 12 -22 7 -43 -11 -43 0 -5 144 6 25 17
50 24 55 7 6 15 35 18 65 2 30 12 75 22 100 27 70 37 185 20 226 -8 19 -21 37
-30 40 -20 8 -21 64 0 64 19 0 19 14 1 29 -11 10 -17 8 -25 -6 -11 -17 -12
-17 -26 1 -8 10 -13 22 -10 25 4 8 413 6 420 -1z"/>
<path d="M572 2652 c-31 -5 -38 -27 -18 -57 l17 -26 24 30 c38 44 30 62 -23
53z"/>
<path d="M693 2653 c-22 -8 -14 -43 11 -55 31 -13 56 -5 56 20 0 33 -31 50
-67 35z"/>
<path d="M1999 2641 c-12 -9 -20 -24 -18 -33 3 -14 9 -14 39 -4 19 6 36 18 38
27 4 24 -34 30 -59 10z"/>
<path d="M1135 2636 c-15 -11 -17 -18 -9 -26 8 -8 20 -6 46 10 l36 21 28 -45
c16 -25 33 -45 37 -46 4 0 7 21 5 48 l-3 47 -60 3 c-41 2 -66 -2 -80 -12z"/>
<path d="M1100 2523 c0 -16 5 -35 10 -43 15 -25 33 3 25 39 -8 39 -35 42 -35
4z"/>
<path d="M770 2518 c-13 -27 -4 -76 15 -80 14 -4 18 52 7 82 l-10 25 -12 -27z"/>
<path d="M2004 2484 c-29 -31 -56 -65 -59 -75 -4 -10 -12 -19 -20 -19 -14 0
-31 -37 -21 -47 11 -11 36 7 36 26 0 11 9 23 20 26 11 4 28 23 38 43 9 20 26
38 37 41 21 4 44 29 45 49 0 25 -25 11 -76 -44z"/>
<path d="M1845 2480 c-10 -11 -15 -23 -12 -27 7 -6 36 25 37 40 0 11 -6 8 -25
-13z"/>
<path d="M620 2476 c0 -29 13 -76 21 -76 5 0 9 20 9 45 0 33 -4 45 -15 45 -8
0 -15 -6 -15 -14z"/>
<path d="M1317 2463 c-4 -3 -7 -26 -7 -50 0 -30 4 -43 14 -43 15 0 26 21 26
48 -1 21 -25 54 -33 45z"/>
<path d="M1800 2431 c0 -5 -9 -11 -21 -14 -12 -3 -19 -11 -17 -18 8 -23 23
-19 40 11 9 17 13 30 8 30 -6 0 -10 -4 -10 -9z"/>
<path d="M1165 2389 c-9 -14 4 -79 15 -79 13 0 23 45 15 69 -7 23 -20 27 -30
10z"/>
<path d="M830 2320 c0 -54 15 -66 30 -25 6 16 6 34 0 50 -15 41 -30 29 -30
-25z"/>
<path d="M1680 2308 c-34 -46 -33 -59 3 -35 36 23 57 47 57 63 0 27 -30 14
-60 -28z"/>
<path d="M680 2317 c0 -37 14 -77 27 -77 22 0 13 84 -9 88 -11 2 -18 -3 -18
-11z"/>
<path d="M1800 2275 c-7 -8 -9 -22 -6 -31 6 -15 8 -15 26 1 11 10 20 24 20 32
0 18 -25 17 -40 -2z"/>
<path d="M1615 2237 c-26 -16 -35 -28 -35 -49 0 -33 27 -18 43 22 8 22 15 40
14 39 -1 0 -11 -6 -22 -12z"/>
<path d="M1100 2220 c-7 -13 -7 -20 -1 -20 6 0 15 9 21 20 7 13 7 20 1 20 -6
0 -15 -9 -21 -20z"/>
<path d="M1707 2183 c-6 -16 -24 -40 -39 -55 -28 -26 -36 -48 -18 -48 11 0
120 110 120 122 0 4 -11 8 -25 8 -18 0 -29 -8 -38 -27z"/>
<path d="M742 2143 c14 -54 28 -64 28 -22 0 32 -14 59 -31 59 -4 0 -3 -17 3
-37z"/>
<path d="M1290 2050 c0 -30 13 -40 25 -20 8 13 -4 50 -16 50 -5 0 -9 -13 -9
-30z"/>
<path d="M1083 2063 c-14 -5 -18 -43 -5 -43 16 1 44 29 37 39 -7 12 -13 12
-32 4z"/>
<path d="M1598 2059 c-17 -10 -26 -49 -10 -49 15 1 42 28 42 44 0 18 -8 20
-32 5z"/>
<path d="M803 1999 c4 -13 7 -36 7 -51 0 -18 7 -29 21 -33 27 -9 51 12 29 25
-8 5 -19 24 -25 41 -14 39 -42 55 -32 18z"/>
<path d="M1002 1978 c-7 -7 -12 -18 -12 -25 0 -19 -28 -28 -44 -14 -10 8 -16
8 -26 -4 -11 -13 -7 -15 27 -15 53 0 94 20 91 44 -4 24 -20 30 -36 14z"/>
<path d="M1336 1953 c-9 -22 18 -43 45 -36 20 6 20 6 -2 29 -27 29 -35 30 -43
7z"/>
<path d="M1462 1928 c7 -20 58 -23 58 -4 0 11 -10 16 -31 16 -20 0 -29 -4 -27
-12z"/>
<path d="M2742 2652 c-22 -15 3 -64 31 -60 30 4 33 62 2 66 -11 1 -26 -2 -33
-6z"/>
<path d="M2460 2635 c0 -9 7 -27 17 -41 l16 -25 23 28 c34 41 30 53 -16 53
-29 0 -40 -4 -40 -15z"/>
<path d="M2600 2630 c0 -40 60 -36 68 4 3 12 -4 16 -32 16 -30 0 -36 -4 -36
-20z"/>
<path d="M2670 2406 c0 -9 7 -16 16 -16 17 0 14 22 -4 28 -7 2 -12 -3 -12 -12z"/>
<path d="M2910 2261 c0 -47 18 -91 37 -91 25 0 10 101 -18 118 -17 11 -19 9
-19 -27z"/>
<path d="M2233 2255 c-10 -7 -15 -16 -12 -19 8 -8 69 5 69 14 0 15 -39 18 -57
5z"/>
<path d="M2123 2146 c-70 -71 -91 -105 -57 -92 9 3 18 6 20 6 2 0 4 6 4 13 0
7 27 38 60 68 53 48 74 79 53 79 -5 0 -41 -34 -80 -74z"/>
<path d="M2360 2165 c0 -10 7 -15 18 -13 21 4 19 22 -2 26 -10 2 -16 -3 -16
-13z"/>
<path d="M2650 2170 c-11 -7 -5 -10 23 -10 23 0 36 4 32 10 -8 13 -35 13 -55
0z"/>
<path d="M2260 2120 c0 -11 7 -20 15 -20 8 0 15 9 15 20 0 11 -7 20 -15 20 -8
0 -15 -9 -15 -20z"/>
<path d="M2985 2111 c-9 -15 6 -89 20 -101 22 -18 28 7 15 56 -13 46 -24 61
-35 45z"/>
<path d="M2192 2058 c-19 -19 -14 -30 10 -26 13 2 24 11 26 21 4 20 -18 23
-36 5z"/>
<path d="M1998 2019 c-26 -15 -23 -41 5 -37 14 2 23 11 25 26 4 24 -4 27 -30
11z"/>
<path d="M2130 1975 c0 -17 5 -25 13 -22 6 2 12 12 12 22 0 10 -6 20 -12 23
-8 2 -13 -6 -13 -23z"/>
<path d="M2847 1962 c-2 -20 -2 -40 2 -43 3 -3 35 -3 71 1 54 5 61 7 38 14
-16 5 -39 5 -53 2 -22 -6 -26 -3 -31 24 -9 44 -21 45 -27 2z"/>
<path d="M3040 1940 c-21 -13 -1 -25 39 -21 11 1 11 4 1 16 -14 17 -20 18 -40
5z"/>
<path d="M2060 1931 c0 -10 24 -21 46 -21 8 0 14 7 14 15 0 10 -10 15 -30 15
-16 0 -30 -4 -30 -9z"/>
<path d="M3623 2650 c-26 -10 -29 -28 -10 -53 19 -27 67 -2 67 36 0 29 -15 34
-57 17z"/>
<path d="M3383 2633 c-13 -8 -23 -22 -23 -29 0 -18 14 -18 29 0 7 8 23 17 37
20 14 4 22 11 19 16 -9 14 -37 11 -62 -7z"/>
<path d="M3495 2640 c-13 -20 12 -35 42 -24 15 5 27 14 27 19 1 14 -61 18 -69
5z"/>
<path d="M3586 2518 c-7 -13 -16 -50 -19 -83 -3 -33 -12 -80 -20 -105 -9 -25
-19 -69 -23 -99 -6 -44 -4 -53 7 -49 8 3 19 30 25 64 6 32 20 79 32 104 11 25
22 63 25 85 3 22 9 55 12 73 6 26 4 32 -9 32 -8 0 -22 -10 -30 -22z"/>
<path d="M3447 2523 c-4 -3 -7 -37 -7 -75 0 -51 3 -69 13 -66 13 5 32 111 23
134 -6 15 -19 18 -29 7z"/>
<path d="M3326 2099 c-9 -47 -7 -117 3 -124 15 -9 21 8 23 73 3 69 -15 105
-26 51z"/>
<path d="M4158 2048 c-26 -9 -27 -13 -22 -49 5 -30 2 -44 -11 -59 -16 -17 -16
-20 -2 -26 36 -13 52 0 53 44 0 30 7 48 22 63 37 33 15 48 -40 27z"/>
<path d="M4026 2041 c-13 -5 -16 -10 -8 -15 15 -9 63 4 56 15 -6 11 -21 11
-48 0z"/>
<path d="M3995 1936 c-17 -12 -17 -13 8 -20 36 -9 61 2 46 20 -14 18 -30 18
-54 0z"/>
<path d="M3425 1930 c-42 -6 -35 -7 44 -8 52 -1 92 0 90 2 -10 8 -88 12 -134
6z"/>
<path d="M3860 1931 c0 -11 30 -19 48 -14 23 8 12 23 -18 23 -16 0 -30 -4 -30
-9z"/>
<path d="M3618 1923 c18 -2 45 -2 60 0 15 2 0 4 -33 4 -33 0 -45 -2 -27 -4z"/>
<path d="M3758 1923 c12 -2 32 -2 45 0 12 2 2 4 -23 4 -25 0 -35 -2 -22 -4z"/>
<path d="M4316 2742 c-3 -5 10 -31 28 -58 66 -97 96 -145 96 -153 0 -5 7 -15
16 -22 13 -11 15 -25 10 -78 -4 -36 -11 -70 -15 -76 -5 -5 -12 -26 -15 -45 -4
-19 -13 -48 -21 -65 -13 -30 -29 -87 -45 -160 -13 -61 -30 -127 -42 -160 -25
-73 -32 -70 156 -73 103 -1 173 1 181 8 6 5 17 29 24 52 29 102 40 145 46 177
7 48 22 61 65 61 31 0 42 -6 63 -33 14 -19 61 -72 105 -118 43 -46 92 -99 108
-116 l29 -33 245 -1 c185 0 246 3 249 12 2 7 -2 17 -10 23 -8 6 -50 52 -94
101 -81 91 -105 118 -213 235 -68 73 -68 72 13 125 27 18 59 42 71 52 11 11
52 42 90 69 73 50 151 107 171 124 7 5 15 10 18 10 7 0 63 39 83 58 16 14 52
16 52 3 0 -5 6 -16 13 -23 7 -7 30 -42 52 -78 21 -36 45 -73 53 -82 13 -15 13
-20 -1 -41 -9 -13 -19 -42 -23 -63 -3 -21 -10 -43 -14 -49 -8 -9 -21 -63 -39
-162 -4 -23 -13 -48 -18 -55 -6 -7 -16 -35 -21 -63 -11 -55 -36 -130 -53 -159
-6 -11 -7 -22 -2 -27 5 -5 257 -8 582 -7 l573 3 15 40 c8 22 18 58 22 80 5 22
13 51 18 65 13 32 33 94 33 104 0 4 -63 6 -140 5 -77 -2 -143 0 -146 4 -4 4
-1 15 8 24 8 10 22 47 32 83 9 36 22 79 27 96 5 17 9 39 9 50 0 39 19 44 152
44 l127 0 16 30 c8 16 15 40 15 53 0 14 7 41 15 60 8 20 15 50 15 67 0 16 5
30 11 30 13 0 48 -41 49 -57 0 -6 6 -18 14 -26 8 -7 23 -29 33 -48 42 -74 59
-99 70 -103 9 -4 798 -9 871 -7 17 1 15 28 -3 35 -8 3 -197 5 -420 6 -367 0
-407 2 -425 17 -11 10 -20 25 -20 35 0 9 -4 20 -10 23 -5 3 -10 16 -10 27 0
20 1 20 18 5 28 -25 42 -21 42 13 0 42 -37 61 -61 31 -19 -24 -29 -27 -29 -9
0 6 -7 20 -17 30 -9 10 -12 18 -7 18 5 0 271 1 590 1 l582 1 31 -23 c28 -21
31 -28 31 -80 0 -31 -7 -70 -15 -85 -8 -16 -15 -43 -15 -60 0 -18 -7 -45 -15
-60 -8 -16 -15 -39 -15 -50 0 -12 -7 -27 -15 -34 -8 -7 -15 -18 -15 -25 0 -16
-33 -45 -52 -45 -9 0 -18 -6 -21 -14 -3 -7 -21 -16 -40 -20 -19 -4 -41 -13
-47 -21 -7 -9 -24 -14 -39 -13 -34 4 -39 -24 -7 -42 14 -7 30 -25 36 -39 5
-14 26 -50 45 -78 20 -29 31 -53 25 -53 -5 0 -10 4 -10 9 0 5 -11 11 -24 13
-18 4 -26 0 -30 -16 -7 -26 11 -38 49 -31 19 3 38 -1 50 -10 18 -13 2 -14
-147 -15 l-166 0 -34 43 c-18 23 -38 48 -45 55 -7 7 -13 17 -13 20 0 4 -10 18
-22 32 -13 14 -36 43 -51 66 -27 40 -30 41 -95 48 -85 8 -186 8 -206 0 -9 -3
-16 -11 -16 -18 -1 -6 -9 -29 -20 -51 -11 -22 -20 -53 -20 -70 0 -16 -7 -39
-15 -49 -8 -11 -15 -32 -15 -48 l0 -28 -129 0 -129 0 5 43 c4 37 16 71 44 129
5 10 9 37 9 60 0 24 7 55 15 71 8 15 19 53 25 84 5 32 14 61 19 66 5 5 194 10
421 12 231 2 417 8 422 13 5 5 6 22 2 37 l-7 28 -18 -22 -18 -22 -412 1 c-331
1 -414 -1 -424 -12 -7 -7 -17 -38 -23 -68 -6 -30 -18 -80 -27 -110 -9 -30 -23
-77 -29 -105 -7 -27 -18 -63 -24 -78 -7 -16 -12 -36 -12 -46 0 -10 -7 -35 -16
-56 -27 -65 -25 -66 167 -63 l170 3 18 45 c19 47 37 111 49 170 l7 35 94 8
c66 6 101 5 115 -3 12 -6 54 -55 94 -110 40 -54 84 -110 97 -124 l24 -26 220
0 c121 0 222 4 225 9 5 7 -34 68 -52 80 -4 3 -30 35 -57 71 -26 36 -55 71 -64
78 -23 19 -2 45 45 57 71 18 184 155 184 222 0 9 7 38 16 67 9 28 22 71 30 96
21 68 18 102 -15 147 -57 79 42 74 -1641 71 l-1486 -3 -61 -45 c-68 -50 -64
-47 -186 -130 -49 -33 -91 -60 -93 -60 -3 0 -26 -16 -51 -35 -67 -51 -145 -47
-125 6 5 13 17 51 26 84 10 33 22 74 28 90 6 17 13 45 15 63 l5 32 -295 0
c-163 0 -298 -4 -301 -8z m524 -72 c0 -12 -15 -16 -67 -18 -73 -3 -103 -17
-59 -28 14 -3 35 -17 45 -30 18 -23 19 -23 24 -4 3 11 10 20 16 20 16 0 14
-81 -3 -99 -8 -9 -16 -38 -18 -66 l-3 -50 83 -3 c79 -3 85 -1 107 23 26 28 65
34 65 10 0 -17 4 -18 38 -9 33 9 28 34 -8 34 -16 0 -30 3 -30 6 0 9 44 43 56
44 6 0 19 10 30 21 16 18 76 61 143 104 9 6 18 12 21 15 3 3 19 15 37 27 30
21 39 22 202 19 94 -1 173 -5 176 -8 3 -2 -16 -15 -43 -28 -26 -13 -56 -33
-67 -44 -23 -24 -151 -110 -177 -119 -10 -4 -18 -11 -18 -16 0 -5 -16 -15 -35
-21 -19 -6 -40 -20 -45 -31 -13 -23 -40 -25 -40 -4 0 8 5 15 10 15 6 0 10 5
10 12 0 9 -3 9 -12 0 -7 -7 -22 -12 -35 -12 -28 0 -31 -26 -3 -35 28 -9 25
-16 -17 -45 -65 -44 -92 -79 -60 -81 19 -1 97 -112 86 -123 -14 -15 -11 -46 6
-52 8 -4 15 -12 15 -20 0 -8 7 -14 15 -14 8 0 15 7 15 15 0 9 -7 18 -15 21 -8
4 -15 15 -15 27 0 17 6 14 35 -20 19 -23 60 -67 90 -100 31 -32 51 -59 45 -61
-15 -5 -77 44 -85 67 -7 22 -45 36 -45 16 0 -8 15 -25 33 -39 28 -22 30 -28
20 -45 -11 -17 -8 -20 22 -25 19 -4 44 -4 57 -1 13 3 31 0 43 -9 18 -14 2 -15
-166 -16 l-186 0 -27 29 c-33 34 -44 47 -113 128 -29 33 -70 79 -92 102 -39
40 -41 41 -109 41 -79 0 -87 -5 -97 -67 -4 -24 -11 -45 -15 -48 -5 -3 -12 -26
-16 -50 -3 -25 -10 -47 -14 -50 -5 -3 -11 -23 -15 -45 l-7 -40 -129 0 -128 0
6 33 c3 17 9 39 13 47 4 8 11 36 14 62 4 26 11 50 16 53 4 3 11 24 15 48 4 23
10 47 14 52 3 6 11 35 18 65 6 30 19 84 28 120 28 110 29 132 11 142 -9 5 -16
15 -16 22 0 8 -7 19 -15 26 -8 7 -15 23 -15 35 0 13 -13 37 -30 53 -16 16 -27
31 -25 34 2 2 101 3 219 3 185 0 216 -2 216 -15z m2220 9 c0 -4 -7 -20 -15
-35 -8 -16 -15 -41 -15 -57 0 -15 -4 -35 -9 -45 -5 -9 -12 -24 -14 -33 -7 -20
-110 -24 -672 -24 l-399 0 -33 65 c-18 36 -36 70 -40 75 -4 6 -14 18 -21 27
-8 10 -12 21 -9 25 6 9 1227 11 1227 2z m-380 -235 c99 -16 -7 -23 -367 -23
-332 -1 -412 4 -360 22 21 7 680 8 727 1z m-12 -50 c34 -7 43 -30 16 -41 -12
-4 -14 -14 -9 -43 5 -28 1 -50 -14 -84 l-21 -46 -378 -2 c-207 -2 -382 1 -388
5 -8 5 -9 17 -4 35 26 81 40 136 40 152 0 10 6 20 13 23 19 7 708 8 745 1z
m-85 -252 c31 -1 57 -6 57 -12 0 -5 -9 -10 -19 -10 -11 0 -22 -4 -25 -9 -3 -5
36 -12 87 -15 109 -8 147 -15 147 -26 0 -4 -7 -10 -15 -14 -9 -3 -15 -18 -15
-36 0 -32 2 -33 39 -23 20 5 23 10 18 44 -3 26 -1 39 9 43 22 8 25 -10 9 -57
-8 -25 -18 -66 -21 -91 l-7 -46 -528 0 c-448 0 -529 2 -529 14 0 10 10 13 38
10 54 -7 69 6 46 41 -15 22 -19 24 -26 11 -16 -29 -28 -17 -28 28 0 51 17 106
33 107 7 1 29 0 50 -1 39 -2 49 12 20 26 -29 13 81 19 352 18 138 -1 276 -2
308 -2z"/>
<path d="M4466 2651 c-5 -8 65 -91 77 -91 4 0 7 14 7 30 0 23 -7 35 -32 50
-37 22 -44 24 -52 11z"/>
<path d="M5525 2653 c-25 -6 -75 -52 -75 -70 0 -17 -5 -18 78 23 86 42 84 68
-3 47z"/>
<path d="M4580 2642 c0 -5 11 -14 25 -20 46 -21 71 -12 43 16 -14 14 -68 16
-68 4z"/>
<path d="M5332 2630 c-21 -34 -13 -37 51 -19 50 14 50 39 -1 39 -26 0 -41 -6
-50 -20z"/>
<path d="M5196 2535 c-20 -30 -12 -31 32 -5 38 23 40 30 8 30 -14 0 -30 -10
-40 -25z"/>
<path d="M5349 2511 c-13 -11 -22 -22 -19 -24 11 -11 57 6 68 24 10 16 9 19
-7 19 -10 0 -29 -9 -42 -19z"/>
<path d="M4570 2486 c0 -29 19 -44 31 -25 13 20 6 43 -14 47 -12 3 -17 -3 -17
-22z"/>
<path d="M5143 2499 c-13 -5 -23 -13 -23 -19 0 -16 40 -12 47 5 8 21 2 24 -24
14z"/>
<path d="M4539 2348 c-4 -22 -49 -181 -57 -203 -31 -87 -45 -156 -34 -167 8
-8 15 -9 22 -2 12 12 35 98 45 169 4 28 11 55 15 60 11 13 25 145 16 145 -3 0
-6 -1 -7 -2z"/>
<path d="M4837 2343 c-26 -7 -10 -23 23 -23 36 0 61 10 54 21 -5 9 -45 10 -77
2z"/>
<path d="M5090 2281 c0 -22 16 -36 24 -22 8 12 -3 41 -15 41 -5 0 -9 -9 -9
-19z"/>
<path d="M5150 2195 c0 -12 28 -35 44 -35 14 0 5 38 -10 44 -25 9 -34 7 -34
-9z"/>
<path d="M4919 2183 c12 -23 40 -48 46 -42 9 9 -21 54 -39 57 -15 3 -16 1 -7
-15z"/>
<path d="M4616 2148 c-16 -53 -29 -110 -33 -146 -4 -34 -11 -46 -29 -54 -32
-15 -25 -32 14 -36 29 -3 32 -1 32 25 0 16 6 37 14 48 11 17 36 128 36 163 0
16 -30 15 -34 0z"/>
<path d="M4997 2095 c20 -27 33 -32 33 -12 0 17 -20 37 -37 37 -11 0 -9 -6 4
-25z"/>
<path d="M5040 2050 c0 -5 5 -10 10 -10 6 0 10 -6 10 -14 0 -18 27 -28 36 -14
4 6 -3 20 -16 30 -25 20 -40 23 -40 8z"/>
<path d="M5125 1960 c-8 -12 36 -52 52 -46 8 3 47 6 86 6 68 1 70 2 46 15 -20
11 -34 12 -62 3 -30 -9 -42 -8 -76 9 -23 12 -43 17 -46 13z"/>
<path d="M4410 1936 c-10 -13 -9 -17 3 -22 24 -9 52 0 52 16 0 21 -39 24 -55
6z"/>
<path d="M5885 2649 c-7 -10 39 -59 56 -59 13 0 11 44 -3 58 -15 15 -45 16
-53 1z"/>
<path d="M6010 2641 c0 -15 29 -33 45 -27 28 10 17 36 -15 36 -16 0 -30 -4
-30 -9z"/>
<path d="M6140 2634 c0 -11 8 -14 27 -12 39 4 42 28 4 28 -21 0 -31 -5 -31
-16z"/>
<path d="M6385 2640 c-4 -6 12 -10 39 -10 25 0 46 5 46 10 0 6 -18 10 -39 10
-22 0 -43 -4 -46 -10z"/>
<path d="M6500 2640 c0 -6 32 -10 75 -10 43 0 75 4 75 10 0 6 -32 10 -75 10
-43 0 -75 -4 -75 -10z"/>
<path d="M6704 2639 c-10 -17 13 -36 27 -22 12 12 4 33 -11 33 -5 0 -12 -5
-16 -11z"/>
<path d="M6823 2634 c-3 -8 1 -22 9 -30 13 -13 16 -13 27 0 7 9 11 23 7 31 -7
20 -35 19 -43 -1z"/>
<path d="M6944 2593 c5 -74 5 -73 14 -73 11 0 37 56 46 98 7 31 7 32 -28 32
l-35 0 3 -57z"/>
<path d="M5940 2336 c0 -7 6 -19 14 -25 11 -9 18 -8 30 4 24 24 20 35 -14 35
-19 0 -30 -5 -30 -14z"/>
<path d="M6075 2341 c-3 -5 -1 -12 5 -16 13 -8 50 3 50 16 0 12 -47 12 -55 0z"/>
<path d="M6200 2340 c0 -5 9 -10 21 -10 11 0 17 5 14 10 -3 6 -13 10 -21 10
-8 0 -14 -4 -14 -10z"/>
<path d="M6586 2341 c-3 -4 4 -17 15 -27 20 -18 21 -18 35 1 8 10 14 22 14 27
0 11 -57 10 -64 -1z"/>
<path d="M6594 2256 c-3 -9 -3 -23 0 -31 8 -22 48 0 44 23 -4 22 -36 28 -44 8z"/>
<path d="M5880 2040 c0 -5 9 -10 19 -10 11 0 23 5 26 10 4 6 -5 10 -19 10 -14
0 -26 -4 -26 -10z"/>
<path d="M6712 2041 c2 -7 7 -12 11 -12 12 1 9 15 -3 20 -7 2 -11 -2 -8 -8z"/>
<path d="M5947 1944 c-15 -16 -5 -24 29 -24 24 0 34 4 32 13 -5 13 -50 22 -61
11z"/>
<path d="M6083 1943 c-24 -9 -13 -23 18 -23 20 0 29 4 27 13 -5 13 -26 18 -45
10z"/>
<path d="M6200 1936 c0 -10 9 -16 21 -16 24 0 21 23 -4 28 -10 2 -17 -3 -17
-12z"/>
<path d="M6751 1936 c-11 -13 -11 -17 2 -22 25 -9 62 0 62 16 0 21 -49 25 -64
6z"/>
<path d="M6265 1930 c4 -6 65 -10 150 -10 85 0 146 4 150 10 4 7 -48 10 -150
10 -102 0 -154 -3 -150 -10z"/>
<path d="M7390 2637 c0 -23 22 -38 37 -26 21 18 15 39 -12 39 -14 0 -25 -6
-25 -13z"/>
<path d="M7516 2641 c-3 -5 1 -14 9 -21 12 -10 18 -10 30 0 8 7 15 16 15 21 0
12 -47 12 -54 0z"/>
<path d="M8163 2641 c-17 -4 -20 -10 -13 -21 7 -12 12 -12 34 -1 21 12 30 12
58 -2 29 -14 35 -14 49 -1 8 8 22 14 31 14 20 0 57 -42 67 -76 l8 -29 12 28
c16 41 14 75 -6 85 -20 11 -205 13 -240 3z"/>
<path d="M7640 2631 c0 -18 18 -21 30 -6 10 13 9 15 -9 15 -11 0 -21 -4 -21
-9z"/>
<path d="M5710 2585 c-7 -8 -42 -35 -79 -59 -36 -24 -77 -54 -90 -65 -13 -12
-30 -21 -38 -21 -7 0 -13 -4 -13 -8 0 -5 -20 -19 -45 -31 -25 -12 -45 -26 -45
-30 0 -4 15 -23 33 -42 18 -19 60 -65 92 -104 33 -38 71 -82 85 -96 14 -14 41
-45 60 -67 50 -59 70 -56 70 11 0 28 7 65 15 81 8 15 15 42 15 60 0 17 7 44
15 60 8 15 15 40 15 55 0 15 7 36 15 47 24 36 21 85 -9 132 -15 24 -31 54 -36
67 -11 28 -41 33 -60 10z m23 -130 c28 -26 37 -41 32 -53 -16 -40 -44 -129
-47 -152 -7 -54 -56 -30 -129 62 -29 36 -29 38 -13 63 13 20 14 28 4 40 -17
21 -7 29 35 27 19 -1 35 3 35 8 0 10 28 40 38 40 4 0 24 -16 45 -35z"/>
<path d="M7320 2562 c0 -5 9 -17 20 -27 19 -18 20 -17 20 2 0 12 -7 24 -16 27
-21 8 -24 8 -24 -2z"/>
<path d="M8354 2495 c-8 -13 -13 -33 -10 -43 4 -11 0 -24 -8 -31 -10 -8 -13
-23 -9 -46 5 -31 0 -39 -46 -84 -28 -27 -51 -54 -51 -60 0 -23 40 -9 79 27 32
30 41 45 41 73 0 19 9 61 20 93 22 65 25 96 10 96 -5 0 -17 -11 -26 -25z"/>
<path d="M8202 2368 c-18 -18 -15 -28 8 -28 13 0 20 7 20 20 0 23 -10 26 -28
8z"/>
<path d="M7317 2313 c-12 -11 -8 -33 6 -33 8 0 22 9 32 20 18 19 17 20 -7 20
-13 0 -28 -3 -31 -7z"/>
<path d="M7531 2231 c-18 -12 -7 -41 16 -41 28 0 47 16 40 34 -7 17 -34 21
-56 7z"/>
<path d="M8150 2230 c0 -5 9 -10 21 -10 11 0 17 5 14 10 -3 6 -13 10 -21 10
-8 0 -14 -4 -14 -10z"/>
<path d="M7630 2222 c0 -19 23 -31 42 -21 10 5 24 9 31 8 23 -3 37 1 37 11 0
6 -25 10 -55 10 -30 0 -55 -4 -55 -8z"/>
<path d="M7280 2195 c-15 -39 -13 -85 4 -85 17 0 26 22 26 65 0 43 -17 54 -30
20z"/>
<path d="M7410 2150 c0 -11 5 -20 10 -20 6 0 10 9 10 20 0 11 -4 20 -10 20 -5
0 -10 -9 -10 -20z"/>
<path d="M7392 2058 c-12 -26 -22 -57 -22 -69 0 -12 -8 -31 -17 -41 -19 -22
-6 -42 23 -36 14 2 21 16 26 48 4 25 10 62 14 82 10 59 -1 67 -24 16z"/>
<path d="M7880 2080 c0 -13 40 -53 47 -47 6 7 -27 57 -38 57 -5 0 -9 -4 -9
-10z"/>
<path d="M8156 2033 c-12 -12 -6 -43 9 -43 8 0 15 9 15 19 0 21 -13 34 -24 24z"/>
<path d="M7982 1940 c22 -30 34 -35 62 -24 22 8 10 24 -18 24 -13 0 -29 7 -36
15 -23 28 -31 15 -8 -15z"/>
<path d="M7228 1943 c-31 -8 -19 -23 18 -23 24 0 34 4 32 13 -5 13 -24 17 -50
10z"/>
<path d="M8115 1930 c3 -5 13 -10 21 -10 8 0 12 5 9 10 -3 6 -13 10 -21 10 -8
0 -12 -4 -9 -10z"/>
<path d="M2665 1599 c-9 -13 -9 -13 43 -28 29 -8 121 -11 295 -10 249 1 252 1
255 -20 2 -12 -2 -21 -10 -21 -7 0 -126 0 -264 0 l-252 1 -20 -42 c-12 -23
-19 -46 -16 -51 6 -10 145 -11 160 0 7 4 13 16 15 27 4 18 13 20 94 23 86 3
99 0 165 -33 14 -7 67 -15 118 -19 51 -4 100 -10 110 -13 33 -13 -10 29 -45
44 -50 20 -40 33 25 33 53 0 60 3 80 30 27 36 28 66 3 80 -27 14 -747 14 -756
-1z"/>
<path d="M3946 1601 c-3 -4 5 -18 17 -29 17 -16 38 -22 91 -24 44 -2 71 -8 74
-15 3 -10 -27 -13 -130 -13 -128 0 -135 -1 -193 -30 -33 -16 -66 -30 -72 -30
-15 0 -57 -39 -50 -46 11 -11 211 17 227 31 12 11 53 16 156 20 132 6 142 5
167 -15 21 -16 50 -24 119 -30 51 -5 94 -7 96 -5 10 10 -22 43 -62 65 -25 13
-46 28 -46 32 0 5 -5 8 -11 8 -6 0 -37 20 -69 45 l-58 45 -126 0 c-68 0 -127
-4 -130 -9z"/>
<path d="M4775 1580 c-8 -16 -15 -38 -15 -48 0 -11 -7 -25 -15 -32 -8 -7 -15
-25 -15 -40 l0 -27 148 -7 c236 -10 503 -9 514 2 6 6 8 18 4 28 -6 15 -28 16
-246 12 l-240 -4 0 26 c0 14 7 34 15 44 14 18 29 19 264 17 244 -2 250 -2 261
19 6 11 8 25 5 30 -4 6 -131 10 -335 10 l-329 0 -16 -30z"/>
<path d="M5750 1597 c0 -7 15 -17 32 -22 41 -12 45 -33 19 -88 -12 -24 -21
-49 -21 -55 0 -13 154 -12 167 1 7 7 29 64 40 102 3 11 12 28 20 37 28 32 6
38 -128 38 -99 0 -129 -3 -129 -13z"/>
<path d="M6310 1597 c0 -9 14 -17 35 -21 30 -6 35 -11 35 -35 0 -15 -7 -36
-15 -47 -8 -10 -15 -31 -15 -46 l0 -27 77 3 c84 4 103 16 103 68 0 24 4 28 28
28 15 0 33 -5 39 -11 6 -6 29 -15 50 -19 21 -5 52 -13 68 -18 99 -34 139 -42
218 -44 92 -3 106 3 107 45 0 11 7 33 16 50 32 62 35 68 29 77 -4 6 -42 10
-85 10 l-78 0 -18 -47 c-26 -71 -16 -69 -134 -28 -19 7 -62 20 -95 29 -33 10
-73 22 -90 29 -16 6 -85 13 -152 15 -102 3 -123 1 -123 -11z"/>
<path d="M7415 1595 c-22 -8 -41 -15 -41 -15 -1 0 -4 -8 -7 -17 -3 -10 -15
-43 -26 -73 -12 -30 -21 -57 -21 -60 0 -4 164 -7 365 -7 l364 -1 21 35 c35 60
30 64 -62 61 -75 -3 -83 -5 -94 -27 -12 -23 -12 -23 -206 -24 l-193 -1 3 35
c1 18 6 37 11 42 5 5 136 10 292 12 156 2 287 4 292 4 4 1 7 12 7 26 l0 25
-332 0 c-264 -1 -341 -4 -373 -15z"/>
</g>
</svg>
