<?xml version="1.0" standalone="no"?>
<!DOCTYPE svg PUBLIC "-//W3C//DTD SVG 20010904//EN"
 "http://www.w3.org/TR/2001/REC-SVG-20010904/DTD/svg10.dtd">
<svg version="1.0" xmlns="http://www.w3.org/2000/svg"
 width="300.000000pt" height="300.000000pt" viewBox="0 0 300.000000 300.000000"
 preserveAspectRatio="xMidYMid meet">
<metadata>
Created by potrace 1.10, written by Peter Selinger 2001-2011
</metadata>
<g transform="translate(0.000000,300.000000) scale(0.050000,-0.050000)"
fill="#ffffff" stroke="none">
<path d="M1455 4146 l-295 -171 0 -976 0 -975 298 -172 c163 -95 309 -172 323
-172 14 0 287 151 607 335 319 184 591 338 603 341 12 3 294 -151 627 -343
l604 -349 304 176 304 176 5 980 5 980 -297 172 c-356 206 -289 205 -653 14
l-300 -158 -10 -303 -10 -303 -281 -146 -281 -147 -279 143 -279 142 -6 295
-5 295 -76 48 c-114 72 -559 292 -588 291 -14 -1 -158 -78 -320 -173z m893
-169 c-4 -7 -100 -65 -213 -129 -113 -63 -234 -133 -270 -154 l-65 -38 0 312
0 313 278 -146 c153 -80 275 -151 270 -158z m1852 -9 l0 -312 -95 55 c-52 30
-179 104 -282 164 l-187 110 277 146 c152 80 279 147 282 148 3 0 5 -139 5
-311z m-2440 -10 l0 -302 -85 49 c-47 28 -160 93 -251 146 -91 52 -170 102
-175 110 -9 14 462 297 496 298 8 1 15 -135 15 -301z m2775 149 c265 -154 259
-138 90 -232 -74 -41 -191 -106 -260 -146 l-125 -71 0 303 c0 280 3 302 35
290 19 -7 136 -72 260 -144z m-3043 -342 l268 -154 0 -612 0 -612 -267 -153
c-147 -85 -273 -154 -280 -154 -7 0 -13 414 -13 920 0 506 6 920 12 920 7 0
133 -70 280 -155z m3308 -765 c0 -506 -6 -920 -12 -920 -7 0 -133 70 -280 155
l-268 154 0 611 0 610 265 154 c146 85 272 155 280 155 8 1 15 -413 15 -919z
m-2097 215 c280 -147 272 -127 92 -230 -80 -46 -192 -111 -250 -145 l-105 -61
0 281 c0 154 6 280 13 280 7 0 119 -56 250 -125z m877 -157 c0 -155 -8 -278
-17 -275 -45 18 -503 288 -503 297 1 15 466 258 495 259 19 1 25 -68 25 -281z
m-1828 -1313 c-5 -5 -123 56 -262 135 -154 88 -246 152 -235 163 10 10 126 81
257 156 l238 138 6 -291 c3 -160 1 -296 -4 -301z m2856 386 c173 -101 174 -97
-51 -227 -103 -59 -216 -125 -252 -147 l-65 -40 0 313 0 313 115 -65 c63 -36
177 -102 253 -147z"/>
</g>
</svg>
