<?xml version="1.0" encoding="UTF-8" standalone="no"?>
<svg
   xmlns="http://www.w3.org/2000/svg"
   viewBox="0 0 950.93335 650"
   height="650"
   width="950.93335"
   xml:space="preserve"
   id="svg2"
   version="1.1"><metadata
     id="metadata8"><rdf:RDF><cc:Work
         rdf:about=""><dc:format>image/svg+xml</dc:format><dc:type
           rdf:resource="http://purl.org/dc/dcmitype/StillImage" /></cc:Work></rdf:RDF></metadata><defs
     id="defs6"><clipPath
       id="clipPath18"
       clipPathUnits="userSpaceOnUse"><path
         id="path16"
         d="M 0,487.5 H 713.2 V 0 H 0 Z" /></clipPath></defs><g
     transform="matrix(1.3333333,0,0,-1.3333333,0,650)"
     id="g10"><g
       id="g12"><g
         clip-path="url(#clipPath18)"
         id="g14"><path
           id="path20"
           style="fill:#000000;fill-opacity:1;fill-rule:nonzero;stroke:none"
           d="M 119.1,338 H 71.4 v 78.4 h 47.7 z m 0,-211.1 H 71.4 v 144.8 h 47.7 z m 18.1,355.9 H 5.1 V 60.6 h 132.1 c 13.3,0 24.6,4.6 34.1,13.9 9.4,9.2 14.2,20.5 14.2,33.8 v 167 c 0,2 -0.1,3.9 -0.3,5.7 -0.2,1.8 -0.5,3.7 -0.9,5.7 -5.6,6.8 -13.7,12.1 -24.1,15.7 11.3,3.2 19.7,8.2 25.3,15.1 v 117 c 0,13.3 -4.7,24.6 -14.2,34.1 -9.5,9.4 -20.8,14.2 -34.1,14.2" /><g
           transform="translate(443.7002,93.2002)"
           id="g22"><path
             id="path24"
             style="fill:#000000;fill-opacity:1;fill-rule:nonzero;stroke:none"
             d="M 0,0 -21.9,15.899 -46.4,33.7 h -121.4 v 355.9 h -66.3 V 33.7 -32.601 h 66.3 157.199 l 2.201,7 z" /></g><g
           transform="translate(693.9004,468.2998)"
           id="g26"><path
             id="path28"
             style="fill:#000000;fill-opacity:1;fill-rule:nonzero;stroke:none"
             d="M 0,0 C -9.5,9.6 -20.801,14.5 -34.101,14.5 H -135.4 -177.601 v -315.7 l 5.5,-17 h 27 33.8 V -51.9 H -52.2 v -289.499 h -55.101 l -24.5,-17.801 -21.8,-15.9 8.3,-25.7 2.301,-7 h 5.8 103.099 c 13.3,0 24.601,4.7 34.101,14.2 9.399,9.4 14.199,20.8 14.199,34.1 V -34.4 C 14.199,-21.1 9.5,-9.7 0,0" /></g><g
           transform="translate(513.7002,101.9004)"
           id="g30"><path
             id="path32"
             style="fill:#c80000;fill-opacity:1;fill-rule:nonzero;stroke:none"
             d="M 0,0 35.1,25.5 H -8.3 L -21.7,66.8 -35.101,25.5 h -43.5 L -43.4,0 l -13.5,-41.301 35.2,25.5 35.099,-25.5 z" /></g><g
           transform="translate(477.5,171.7998)"
           id="g34"><path
             id="path36"
             style="fill:#000000;fill-opacity:1;fill-rule:nonzero;stroke:none"
             d="M 0,0 C 9.6,10.9 14.5,23.9 14.5,39.2 V 70.101 312.2 H -51.8 V 45.8 h -59.1 v 266.4 h -66.3 v -273 c 0,-15.3 4.8,-28.3 14.5,-39.2 9.7,-11.3 21.5,-17.899 35.6,-19.899 h 91.7 c 8.8,1.299 16.7,4.299 23.8,9.199 4.1,2.9 8,6.5 11.6,10.7" /></g><g
           transform="translate(5.1001,4.5)"
           id="g38"><path
             id="path40"
             style="fill:#000000;fill-opacity:1;fill-rule:nonzero;stroke:none"
             d="M 0,0 V 43.1 H 10.4 V 9 H 29.7 V 0 Z" /></g><g
           transform="translate(74,23.0996)"
           id="g42"><path
             id="path44"
             style="fill:#000000;fill-opacity:1;fill-rule:nonzero;stroke:none"
             d="M 0,0 V 24.5 H 10.4 V 0 c 0,-5.399 2.9,-9.5 8.7,-9.5 6,0 8.7,4.101 8.7,9.5 V 24.5 H 38.2 V 0 C 38.2,-11.1 31,-19.6 19.1,-19.6 7.5,-19.6 0,-11.1 0,0" /></g><g
           transform="translate(166.1001,22.4004)"
           id="g46"><path
             id="path48"
             style="fill:#000000;fill-opacity:1;fill-rule:nonzero;stroke:none"
             d="m 0,0 v -8.9 h 10 c 2.8,0 4.7,2.099 4.7,4.4 0,2.199 -1.7,4.3 -4.2,4.5 z M 9.5,16.3 H 0.1 V 7.8 h 9.2 c 2.7,0 4.5,1.899 4.5,4.2 -0.1,2.3 -1.8,4.3 -4.3,4.3 M 10,-17.9 h -20.3 v 43.099 h 20 c 10.2,0 15.1,-4.5 15.1,-11.8 0,-3.5 -1.9,-6.799 -5.1,-8.7 V 4.1 c 4,-1.3 6.3,-4.8 6.3,-9.201 -0.1,-8 -5.8,-12.799 -16,-12.799" /></g><g
           transform="translate(252.2998,38.7002)"
           id="g50"><path
             id="path52"
             style="fill:#000000;fill-opacity:1;fill-rule:nonzero;stroke:none"
             d="m 0,0 h -7.9 v -11.2 h 8 c 3.7,0 6.5,1.9 6.5,5.599 C 6.6,-1.8 3.9,0 0,0 m 0.8,8.899 c 9.8,0 16.6,-6.099 16.6,-14.5 0,-6 -3.1,-10.5 -8,-12.799 v -0.8 l 9.7,-14.3 v -0.7 H 7.2 l -9,14.2 h -6 V -34.2 H -18.3 V 8.899 Z" /></g><path
           id="path54"
           style="fill:#000000;fill-opacity:1;fill-rule:nonzero;stroke:none"
           d="m 322.7,4.5 h -10.4 v 43.1 h 10.4 z" /><g
           transform="translate(401.4004,8.7998)"
           id="g56"><path
             id="path58"
             style="fill:#000000;fill-opacity:1;fill-rule:nonzero;stroke:none"
             d="m 0,0 c 0,0 -4.601,-5.3 -14.7,-5.3 -13.901,0 -22.2,10.2 -22.2,22.6 0,12.4 8.299,22.5 22.2,22.5 C -4.601,39.8 0,34.601 0,34.601 l -6,-8 c 0,0 -2.9,3.199 -8.601,3.199 -6.799,0 -11.599,-5 -11.599,-12.5 0,-7.5 4.8,-12.5 11.599,-12.5 C -8.9,4.8 -6,8 -6,8 Z" /></g><g
           transform="translate(453.2002,20.5)"
           id="g60"><path
             id="path62"
             style="fill:#000000;fill-opacity:1;fill-rule:nonzero;stroke:none"
             d="m 0,0 h 10.899 l -5.5,16 z M 27.6,-16 H 16.399 L 13.7,-8.2 H -2.8 L -5.5,-16 h -11.2 l 16.5,43.1 h 11.4 z" /></g><g
           transform="translate(558.9004,4.5)"
           id="g64"><path
             id="path66"
             style="fill:#000000;fill-opacity:1;fill-rule:nonzero;stroke:none"
             d="M 0,0 H -8 L -28.7,25.1 V 0 H -39 v 43.1 h 8 L -10.301,18.4 V 43.1 H 0 Z" /></g><g
           transform="translate(600.2002,47.5996)"
           id="g68"><path
             id="path70"
             style="fill:#000000;fill-opacity:1;fill-rule:nonzero;stroke:none"
             d="M 0,0 H 34.7 V -9 H 22.6 V -43.1 H 12.2 V -9 H 0.1 v 9 z" /></g><g
           transform="translate(679.0996,17.2998)"
           id="g72"><path
             id="path74"
             style="fill:#000000;fill-opacity:1;fill-rule:nonzero;stroke:none"
             d="m 0,0 c 0,0 6.2,-4.2 12,-4.2 3.2,0 4.7,1.4 4.7,3.6 0,2.201 -1.399,3.4 -7.399,5.201 C 0.2,7.3 -4.899,10.8 -4.899,17.9 c 0,7.8 5.299,13.4 16.7,13.4 C 23.5,31.3 28,26.7 28,26.7 l -5.6,-8.5 c 0,0 -4.5,3.6 -10.599,3.6 -3.5,0 -4.7,-1.4 -4.7,-3.199 0,-2.201 1.899,-3 6.799,-4.5 9.6,-2.701 15,-6.401 15,-13.601 0,-7.8 -5.2,-14.3 -16.599,-14.3 -11.901,0 -18,5.7 -18,5.7 z" /></g><g
           transform="translate(700.9004,68.4004)"
           id="g76"><path
             id="path78"
             style="fill:#000000;fill-opacity:1;fill-rule:nonzero;stroke:none"
             d="m 0,0 v -1.601 h 1.3 c 0.599,0 1,0.3 1,0.8 C 2.3,-0.2 1.899,0 1.3,0 Z m 1.3,1.199 c 1.399,0 2.3,-0.8 2.3,-2 0,-0.8 -0.401,-1.3 -1,-1.699 L 3.699,-4 v -0.301 h -1.3 l -1,1.5 H 0 v -1.5 H -1.2 V 1.1 H 1.3 Z M 1.1,3.5 C -1.801,3.5 -3.7,1.399 -3.7,-1.601 -3.7,-4.5 -1.801,-6.7 1.1,-6.7 4,-6.7 6,-4.5 6,-1.601 6,1.3 4.1,3.5 1.1,3.5 m 0,-11.301 c -3.8,0 -6,2.901 -6,6.2 0,3.401 2.2,6.201 6,6.201 3.799,0 6.099,-2.8 6.099,-6.201 0,-3.399 -2.3,-6.2 -6.099,-6.2" /></g></g></g></g></svg>